<svg width="42" height="43" viewBox="0 0 42 43" fill="none" xmlns="http://www.w3.org/2000/svg">
<path fill-rule="evenodd" clip-rule="evenodd" d="M26.5812 29.5878H16.6063C15.2279 29.5878 14.1018 28.4617 14.1018 27.0833V17.1084C14.1018 15.73 15.2279 14.6039 16.6063 14.6039H26.5812C27.9596 14.6039 29.0857 15.73 29.0857 17.1084V27.0833C29.0857 28.4678 27.9658 29.5878 26.5812 29.5878ZM21.5969 25.9449C20.5692 25.9449 19.6031 25.5449 18.877 24.8188C18.1509 24.0927 17.7509 23.1266 17.7509 22.0989C17.7509 21.0713 18.1509 20.1052 18.877 19.3791C19.6031 18.6529 20.5692 18.253 21.5969 18.253C22.6245 18.253 23.5906 18.6529 24.3168 19.3791C25.0429 20.1052 25.4429 21.0713 25.4429 22.0989C25.4429 23.1266 25.0429 24.0927 24.3168 24.8188C23.5845 25.5449 22.6245 25.9449 21.5969 25.9449ZM21.5969 19.0714C19.9293 19.0714 18.5693 20.4252 18.5693 22.0989C18.5693 23.7665 19.9231 25.1265 21.5969 25.1265C23.2645 25.1265 24.6244 23.7727 24.6244 22.0989C24.6183 20.4313 23.2645 19.0714 21.5969 19.0714ZM26.9309 17.3881C26.9309 17.7959 26.6003 18.1265 26.1924 18.1265C25.7846 18.1265 25.454 17.7959 25.454 17.3881C25.454 16.9803 25.7846 16.6497 26.1924 16.6497C26.6003 16.6497 26.9309 16.9803 26.9309 17.3881Z" fill="white"/>
</svg>
