<svg width="42" height="43" viewBox="0 0 42 43" fill="none" xmlns="http://www.w3.org/2000/svg">
<g clip-path="url(#clip0_23_12250)">
<path d="M13.7036 17.3461H13.6775C13.4012 17.3634 13.1242 17.3234 12.864 17.2287C12.6038 17.134 12.366 16.9866 12.1654 16.7957C11.9648 16.6049 11.8058 16.3746 11.6983 16.1195C11.5908 15.8643 11.5372 15.5897 11.5407 15.3128C11.5442 15.0359 11.6049 14.7628 11.7189 14.5104C11.8329 14.2581 11.9977 14.032 12.2031 13.8463C12.4085 13.6607 12.6501 13.5194 12.9126 13.4314C13.1751 13.3433 13.453 13.3105 13.7288 13.3348C14.0052 13.3155 14.2825 13.3535 14.5435 13.4464C14.8045 13.5393 15.0435 13.6851 15.2455 13.8747C15.4475 14.0642 15.6082 14.2935 15.7174 14.5481C15.8267 14.8026 15.8822 15.077 15.8804 15.3541C15.8787 15.6311 15.8198 15.9048 15.7073 16.1579C15.5949 16.4111 15.4313 16.6383 15.2269 16.8254C15.0226 17.0124 14.7818 17.1552 14.5196 17.2448C14.2575 17.3344 13.9797 17.3689 13.7036 17.3461ZM11.9162 20.0461H15.5162V30.8461H11.9162V20.0461ZM24.9662 20.0461C24.3596 20.0478 23.7612 20.1865 23.2157 20.4519C22.6703 20.7173 22.1919 21.1025 21.8162 21.5788V20.0461H18.2162V30.8461H21.8162V25.8961C21.8162 25.4187 22.0058 24.9609 22.3434 24.6233C22.681 24.2858 23.1388 24.0961 23.6162 24.0961C24.0936 24.0961 24.5514 24.2858 24.889 24.6233C25.2266 24.9609 25.4162 25.4187 25.4162 25.8961V30.8461H29.0162V24.0961C29.0162 23.022 28.5895 21.9918 27.83 21.2323C27.0705 20.4728 26.0403 20.0461 24.9662 20.0461Z" fill="white"/>
</g>
<defs>
<clipPath id="clip0_23_12250">
<rect width="19" height="18" fill="white" transform="translate(11 12.8461)"/>
</clipPath>
</defs>
</svg>
