<svg width="132" height="165" viewBox="0 0 132 165" fill="none" xmlns="http://www.w3.org/2000/svg">
<path d="M129.978 27.9656L67.0937 0.624719C66.7483 0.475919 66.3762 0.39917 66.0001 0.39917C65.624 0.39917 65.2518 0.475919 64.9064 0.624719L2.02244 27.9656C1.53568 28.1822 1.12188 28.5348 0.830845 28.9811C0.539809 29.4273 0.383937 29.9482 0.381992 30.4809V71.1368C0.361108 83.6276 3.11157 95.9675 8.43514 107.267C13.7587 118.567 21.5228 128.545 31.1678 136.481L64.2502 163.822C64.7427 164.229 65.3614 164.451 66.0001 164.451C66.6387 164.451 67.2574 164.229 67.7499 163.822L100.832 136.481C110.477 128.545 118.241 118.567 123.565 107.267C128.889 95.9675 131.639 83.6276 131.618 71.1368V30.4809C131.616 29.9482 131.46 29.4273 131.169 28.9811C130.878 28.5348 130.464 28.1822 129.978 27.9656ZM126.15 71.1368C126.166 82.8209 123.592 94.3633 118.614 104.934C113.636 115.505 106.377 124.841 97.36 132.271L66.0001 158.163L34.6401 132.271C25.6229 124.841 18.3643 115.505 13.3863 104.934C8.40824 94.3633 5.83451 82.8209 5.85016 71.1368V32.2854L66.0001 6.12023L126.15 32.2854V71.1368Z" fill="#19A089"/>
<path d="M86.9103 119.612L66 136.892L45.0897 119.612C43.7008 118.461 42.3557 117.25 41.0898 116.011L37.2621 119.916C38.6291 121.264 40.0973 122.579 41.6065 123.825L64.2584 142.535C64.7485 142.94 65.3643 143.161 66 143.161C66.6357 143.161 67.2516 142.94 67.7416 142.535L90.3908 123.828C91.8754 122.603 93.3382 121.288 94.738 119.916L90.9103 116.011C89.6225 117.28 88.2774 118.491 86.9103 119.612Z" fill="#19A089"/>
<path d="M64.9064 18.5222L18.4269 38.7298C17.9391 38.9427 17.5241 39.2933 17.2327 39.7387C16.9413 40.1841 16.7862 40.7048 16.7865 41.237V63.2901H22.2546V43.0278L66 24.0122L109.745 43.0278V63.2901H115.214V41.237C115.214 40.7048 115.059 40.1841 114.767 39.7387C114.476 39.2933 114.061 38.9427 113.573 38.7298L67.0937 18.5222C66.7487 18.3717 66.3764 18.2939 66 18.2939C65.6237 18.2939 65.2513 18.3717 64.9064 18.5222Z" fill="#19A089"/>
<path d="M74.2023 85.1628H57.7978V90.631H74.2023V85.1628Z" fill="#19A089"/>
<path d="M109.745 71.4924C109.739 69.319 108.873 67.2365 107.336 65.6997C105.799 64.1628 103.717 63.2966 101.543 63.2901C99.5267 63.2956 97.5854 64.0565 96.1023 65.4227L93.1768 59.5991L91.0443 51.0414C90.7555 49.8535 90.0752 48.7975 89.113 48.0436C88.1507 47.2896 86.9626 46.8817 85.7401 46.8856H79.6705V38.6833C79.6705 37.9582 79.3824 37.2628 78.8697 36.75C78.3569 36.2373 77.6615 35.9492 76.9364 35.9492H55.0637C54.3386 35.9492 53.6431 36.2373 53.1304 36.75C52.6176 37.2628 52.3296 37.9582 52.3296 38.6833V46.8856H46.2599C45.0375 46.8817 43.8494 47.2896 42.8871 48.0436C41.9248 48.7975 41.2445 49.8535 40.9558 51.0414L38.8232 59.5991L35.8977 65.4227C34.4146 64.0565 32.4734 63.2956 30.4569 63.2901C28.6849 63.2973 26.9628 63.8781 25.5484 64.9458C24.1341 66.0134 23.1035 67.5104 22.611 69.2126C22.1185 70.9149 22.1905 72.7309 22.8163 74.3888C23.442 76.0467 24.5879 77.4573 26.0824 78.4096C25.3713 79.63 24.9941 81.0162 24.9887 82.4287V107.035C24.9931 108.484 25.5706 109.873 26.5951 110.897C27.6196 111.922 29.008 112.499 30.4569 112.504H41.3933C42.8422 112.499 44.2305 111.922 45.2551 110.897C46.2796 109.873 46.8571 108.484 46.8614 107.035V101.567H85.1386V107.035C85.143 108.484 85.7205 109.873 86.745 110.897C87.7696 111.922 89.1579 112.499 90.6068 112.504H101.543C102.992 112.499 104.38 111.922 105.405 110.897C106.429 109.873 107.007 108.484 107.011 107.035V82.4287C107.006 81.0162 106.629 79.63 105.918 78.4096C107.09 77.6757 108.056 76.6558 108.726 75.4458C109.395 74.2357 109.746 72.8753 109.745 71.4924ZM57.7978 41.4174H74.2023V46.8856H57.7978V41.4174ZM46.2599 52.3538H85.7401L87.1072 57.8219H44.8929L46.2599 52.3538ZM43.0884 63.2901H88.9117L94.3798 74.2265H37.6202L43.0884 63.2901ZM27.7228 71.4924C27.7201 70.8115 27.9735 70.1546 28.4328 69.652C28.892 69.1494 29.5235 68.8379 30.2018 68.7793C30.8801 68.7208 31.5557 68.9195 32.0942 69.336C32.6328 69.7525 32.995 70.3563 33.109 71.0276L31.6599 73.8984C31.2908 74.1022 30.8783 74.2147 30.4569 74.2265C29.7318 74.2265 29.0364 73.9384 28.5236 73.4257C28.0109 72.9129 27.7228 72.2175 27.7228 71.4924ZM41.3933 107.035H30.4569V101.075C31.3337 101.393 32.2583 101.56 33.191 101.567H41.3933V107.035ZM101.543 107.035H90.6068V101.567H98.8091C99.7418 101.56 100.666 101.393 101.543 101.075V107.035ZM101.543 93.3651C101.543 94.0902 101.255 94.7856 100.742 95.2983C100.23 95.8111 99.5342 96.0991 98.8091 96.0991H33.191C32.4659 96.0991 31.7704 95.8111 31.2577 95.2983C30.745 94.7856 30.4569 94.0902 30.4569 93.3651V82.4287C30.4569 81.7036 30.745 81.0082 31.2577 80.4954C31.7704 79.9827 32.4659 79.6946 33.191 79.6946H98.8091C99.5342 79.6946 100.23 79.9827 100.742 80.4954C101.255 81.0082 101.543 81.7036 101.543 82.4287V93.3651ZM101.543 74.2265C101.122 74.2147 100.709 74.1022 100.34 73.8984L98.8911 71.0276C98.9833 70.5188 99.2188 70.0469 99.5701 69.6674C99.9213 69.2879 100.374 69.0166 100.874 68.8854C101.374 68.7543 101.901 68.7687 102.393 68.9269C102.886 69.0852 103.323 69.3807 103.653 69.7788C103.983 70.1769 104.192 70.6609 104.256 71.174C104.321 71.687 104.237 72.2078 104.016 72.675C103.794 73.1422 103.444 73.5364 103.006 73.8113C102.568 74.0861 102.06 74.2301 101.543 74.2265Z" fill="#19A089"/>
<path d="M90.6068 93.3651C93.6268 93.3651 96.075 90.9169 96.075 87.8969C96.075 84.8769 93.6268 82.4287 90.6068 82.4287C87.5868 82.4287 85.1386 84.8769 85.1386 87.8969C85.1386 90.9169 87.5868 93.3651 90.6068 93.3651Z" fill="#19A089"/>
<path d="M41.3933 93.3651C44.4132 93.3651 46.8614 90.9169 46.8614 87.8969C46.8614 84.8769 44.4132 82.4287 41.3933 82.4287C38.3733 82.4287 35.9251 84.8769 35.9251 87.8969C35.9251 90.9169 38.3733 93.3651 41.3933 93.3651Z" fill="#19A089"/>
</svg>
