<svg width="42" height="43" viewBox="0 0 42 43" fill="none" xmlns="http://www.w3.org/2000/svg">
<g clip-path="url(#clip0_23_12251)">
<path d="M29.3672 17.1943C29.2922 16.901 29.1486 16.6298 28.9482 16.403C28.7478 16.1761 28.4963 16.0002 28.2145 15.8897C25.4877 14.8365 21.1477 14.8461 20.9091 14.8461C20.6705 14.8461 16.3305 14.8365 13.6036 15.8897C13.3219 16.0002 13.0704 16.1761 12.87 16.403C12.6696 16.6298 12.526 16.901 12.451 17.1943C12.245 17.9881 12 19.439 12 21.8461C12 24.2531 12.245 25.704 12.451 26.4979C12.5259 26.7913 12.6694 27.0627 12.8698 27.2896C13.0702 27.5166 13.3218 27.6926 13.6036 27.8032C16.2159 28.8111 20.3045 28.8461 20.8566 28.8461H20.9616C21.5136 28.8461 25.6047 28.8111 28.2145 27.8032C28.4964 27.6926 28.7479 27.5166 28.9484 27.2896C29.1488 27.0627 29.2923 26.7913 29.3672 26.4979C29.5732 25.7024 29.8182 24.2531 29.8182 21.8461C29.8182 19.439 29.5732 17.9881 29.3672 17.1943ZM23.6311 22.111L19.813 24.6564C19.765 24.6884 19.7093 24.7068 19.6518 24.7095C19.5942 24.7123 19.537 24.6994 19.4862 24.6722C19.4354 24.645 19.3929 24.6046 19.3633 24.5551C19.3338 24.5057 19.3181 24.4491 19.3182 24.3915V19.3006C19.3181 19.243 19.3338 19.1865 19.3633 19.137C19.3929 19.0876 19.4354 19.0471 19.4862 19.0199C19.537 18.9927 19.5942 18.9798 19.6518 18.9826C19.7093 18.9854 19.765 19.0038 19.813 19.0357L23.6311 21.5812C23.6748 21.6102 23.7106 21.6496 23.7353 21.6958C23.7601 21.742 23.773 21.7936 23.773 21.8461C23.773 21.8985 23.7601 21.9501 23.7353 21.9963C23.7106 22.0425 23.6748 22.0819 23.6311 22.111Z" fill="white"/>
</g>
<defs>
<clipPath id="clip0_23_12251">
<rect width="18" height="14" fill="white" transform="translate(12 14.8461)"/>
</clipPath>
</defs>
</svg>
